<?xml version="1.0" encoding="iso-8859-1"?>
<!-- Generator: Adobe Illustrator 18.1.0, SVG Export Plug-In . SVG Version: 6.00 Build 0)  -->
<svg version="1.1" id="Layer_1" xmlns="http://www.w3.org/2000/svg" xmlns:xlink="http://www.w3.org/1999/xlink" x="0px" y="0px"
	 viewBox="0 0 63.26 114.037" style="enable-background:new 0 0 63.26 114.037;" xml:space="preserve">
<rect x="1.945" y="7.13" style="fill:#FFFFFF;" width="58.849" height="13.259"/>
<rect x="5.34" y="1.919" style="fill:#FFFFFF;" width="51.922" height="6.461"/>
<rect x="53.818" y="4.607" style="fill:none;stroke:#FFFFFF;stroke-width:2.5271;stroke-miterlimit:10;" width="4.332" height="4.55"/>
<rect x="4.45" y="4.607" style="fill:none;stroke:#FFFFFF;stroke-width:2.5271;stroke-miterlimit:10;" width="4.332" height="4.55"/>
<g>
	<rect x="1.945" y="95.283" style="fill:#FFFFFF;" width="58.849" height="9.922"/>
	<rect x="5.478" y="103.955" style="fill:#FFFFFF;" width="51.922" height="6.461"/>
	
		<rect x="4.589" y="104.429" style="fill:none;stroke:#FFFFFF;stroke-width:2.5271;stroke-miterlimit:10;" width="4.332" height="4.55"/>
	
		<rect x="53.956" y="104.429" style="fill:none;stroke:#FFFFFF;stroke-width:2.5271;stroke-miterlimit:10;" width="4.332" height="4.55"/>
</g>
<g>
	<path style="fill:none;stroke:#FFFFFF;stroke-width:2.5271;stroke-miterlimit:10;" d="M60.794,104.503
		c0,3.94-3.224,7.164-7.164,7.164H9.258c-3.94,0-7.164-3.224-7.164-7.164V8.83c0-3.94,3.224-7.164,7.164-7.164h44.372
		c3.94,0,7.164,3.224,7.164,7.164V104.503z"/>
</g>
<line style="fill:none;stroke:#FFFFFF;stroke-width:2.5271;stroke-miterlimit:10;" x1="1.945" y1="20.389" x2="60.945" y2="20.389"/>
<line style="fill:none;stroke:#FFFFFF;stroke-width:2.5271;stroke-miterlimit:10;" x1="60.945" y1="95.283" x2="1.945" y2="95.283"/>
</svg>
