<?xml version="1.0" encoding="iso-8859-1"?>
<!-- Generator: Adobe Illustrator 18.1.0, SVG Export Plug-In . SVG Version: 6.00 Build 0)  -->
<svg version="1.1" id="Layer_1" xmlns="http://www.w3.org/2000/svg" xmlns:xlink="http://www.w3.org/1999/xlink" x="0px" y="0px"
	 viewBox="0 0 124.531 114.037" style="enable-background:new 0 0 124.531 114.037;" xml:space="preserve">
<g>
	<path style="fill:#FFFFFF;" d="M26.455,88.396c0,5.852,1.456,10.024,4.37,12.514c2.913,2.489,6.106,3.942,9.579,4.361v6.666
		c-6.647-0.683-12.147-2.669-16.497-5.955c-4.351-3.286-6.526-8.688-6.526-16.209V78.035c0-4.139-0.636-7.407-1.904-9.8
		c-2.316-4.368-6.76-6.914-13.332-7.635v-6.553c6.61-0.797,11.054-3.283,13.332-7.457c1.269-2.313,1.904-5.634,1.904-9.96v-9.277
		c0-7.133,1.521-12.787,4.565-16.961c3.044-4.174,9.196-6.658,18.458-7.455v6.495C34.39,9.964,30.32,12.66,28.191,17.52
		c-1.158,2.657-1.737,6.34-1.737,11.046v6.379c0,5.694-0.692,10.06-2.073,13.098c-2.503,5.506-7.358,8.599-14.565,9.282
		c7.171,0.646,12.025,3.838,14.565,9.578c1.381,3.155,2.073,7.45,2.073,12.885V88.396z"/>
	<path style="fill:#FFFFFF;" d="M99.904,48.083c-1.382-3.042-2.073-7.427-2.073-13.156v-6.374c0-5.008-0.58-8.801-1.737-11.382
		c-2.092-4.627-6.162-7.208-12.212-7.739V2.938c9.635,0.797,16.17,3.834,19.606,9.11c2.241,3.379,3.361,8.483,3.361,15.311v9.275
		c0,4.25,0.635,7.55,1.905,9.903c2.315,4.287,6.778,6.791,13.388,7.512V60.6c-6.574,0.683-11.035,3.247-13.388,7.692
		c-1.27,2.431-1.905,5.678-1.905,9.742v11.739c0,7.672-2.176,13.104-6.526,16.295c-4.351,3.191-9.832,5.147-16.442,5.869v-6.666
		c3.996-0.532,7.319-2.157,9.971-4.872c2.651-2.716,3.978-6.715,3.978-11.994v-8.604c0-5.47,0.69-9.765,2.073-12.886
		c2.539-5.748,7.375-8.944,14.508-9.591C107.242,56.639,102.405,53.56,99.904,48.083z"/>
</g>
</svg>
