<?xml version="1.0" encoding="UTF-8" standalone="no"?>
<svg width="141px" height="20px" viewBox="0 0 141 20" version="1.1" xmlns="http://www.w3.org/2000/svg" xmlns:xlink="http://www.w3.org/1999/xlink">
    <g id="Page-1" stroke="none" stroke-width="1" fill="none" fill-rule="evenodd">
        <g id="color-test" transform="translate(-20.000000, -310.000000)">
            <g id="logo-tc-connect" transform="translate(20.000000, 310.000000)">
                <path d="M70.76,16.24 C72.44,16.24 73.4,15.58 74.18,14.58 L73.46,13.94 C72.76,14.9 71.88,15.3 70.82,15.3 C68.56,15.3 67.18,13.48 67.18,11.16 C67.18,8.84 68.56,7.04 70.82,7.04 C71.88,7.04 72.76,7.42 73.46,8.38 L74.18,7.74 C73.4,6.76 72.44,6.1 70.76,6.1 C67.92,6.1 66.08,8.34 66.08,11.16 C66.08,13.98 67.92,16.24 70.76,16.24 L70.76,16.24 Z M81.58,16.24 C84.44,16.24 86.24,13.98 86.24,11.16 C86.24,8.34 84.44,6.1 81.58,6.1 C78.76,6.1 76.96,8.34 76.96,11.16 C76.96,13.98 78.76,16.24 81.58,16.24 L81.58,16.24 Z M81.58,15.3 C79.34,15.3 78.06,13.32 78.06,11.16 C78.06,9.02 79.34,7.04 81.58,7.04 C83.86,7.04 85.12,9.02 85.12,11.16 C85.12,13.32 83.86,15.3 81.58,15.3 L81.58,15.3 Z M97.48,16 L97.48,9.24 C97.48,7.06 96.4,6.1 94.44,6.1 C93.04,6.1 91.66,6.96 90.96,7.8 L90.96,6.34 L89.92,6.34 L89.92,16 L90.96,16 L90.96,8.7 C91.58,7.82 92.86,7.04 94.1,7.04 C95.5,7.04 96.44,7.6 96.44,9.46 L96.44,16 L97.48,16 Z M109.28,16 L109.28,9.24 C109.28,7.06 108.2,6.1 106.24,6.1 C104.84,6.1 103.46,6.96 102.76,7.8 L102.76,6.34 L101.72,6.34 L101.72,16 L102.76,16 L102.76,8.7 C103.38,7.82 104.66,7.04 105.9,7.04 C107.3,7.04 108.24,7.6 108.24,9.46 L108.24,16 L109.28,16 Z M117.8,16.24 C119.4,16.24 120.62,15.68 121.58,14.68 L121.04,14 C120.22,14.88 119.1,15.34 117.88,15.34 C115.6,15.34 114.2,13.6 114.1,11.5 L122.18,11.5 L122.18,11.22 C122.18,8.42 120.56,6.1 117.62,6.1 C114.94,6.1 112.98,8.36 112.98,11.16 C112.98,14.14 114.98,16.24 117.8,16.24 L117.8,16.24 Z M121.12,10.68 L114.1,10.68 C114.18,9 115.32,7 117.6,7 C120.02,7 121.1,9.04 121.12,10.68 L121.12,10.68 Z M130,16.24 C131.68,16.24 132.64,15.58 133.42,14.58 L132.7,13.94 C132,14.9 131.12,15.3 130.06,15.3 C127.8,15.3 126.42,13.48 126.42,11.16 C126.42,8.84 127.8,7.04 130.06,7.04 C131.12,7.04 132,7.42 132.7,8.38 L133.42,7.74 C132.64,6.76 131.68,6.1 130,6.1 C127.16,6.1 125.32,8.34 125.32,11.16 C125.32,13.98 127.16,16.24 130,16.24 L130,16.24 Z M138.84,16.24 C139.64,16.24 140.1,16 140.48,15.64 L140.08,14.84 C139.86,15.08 139.46,15.3 139,15.3 C138.32,15.3 138,14.76 138,13.98 L138,7.26 L139.96,7.26 L139.96,6.34 L138,6.34 L138,3.7 L136.94,3.7 L136.94,6.34 L135.34,6.34 L135.34,7.26 L136.94,7.26 L136.94,14.14 C136.94,15.46 137.56,16.24 138.84,16.24 L138.84,16.24 Z" id="connect" fill="#FFFFFF"></path>
                <g id="Group-2">
                    <path d="M13.8953189,6.45958968 C7.47820872,5.23993619 1.43161516,5.34495494 0.217240541,8.75902697 C-0.638984393,11.1657713 1.11289024,14.7970247 4.12029187,18.3806305 C5.00720715,19.4373395 6.0333737,19.7742422 6.99746177,19.7670355 C7.8889228,15.0683757 11.4449288,10.0473564 13.8953189,6.45958968 Z" id="Fill-1" fill="#26ADE9"></path>
                    <path d="M28.7127501,10.1095695 C32.0075818,8.69518626 36.4895369,7.27757875 40.803347,6.45825391 C41.0240583,6.68431162 41.241063,6.91610137 41.455035,7.15183191 C37.4535902,2.73958674 32.2653591,0.0193709558 27.3450141,0.0193709558 C22.6878379,0.0193709558 17.7904065,2.45620854 13.8866812,6.45825391 C18.2004914,7.27757875 22.6824465,8.69518626 25.9772782,10.1095695 C26.3941024,10.288696 26.853721,10.481078 27.3450141,10.684924 C27.8363073,10.481078 28.2959259,10.288696 28.7127501,10.1095695 Z" id="Fill-4" fill="#60C700"></path>
                    <path d="M13.8936765,6.46411995 C10.5070571,9.9755741 6.99046653,16.8542052 6.99046653,19.7632221 C8.15886961,19.7632216 9.55321505,19.1650128 10.558911,18.6135553 C15.570342,15.8656165 20.7495611,11.4084308 27.3159922,10.6831679 C23.9815764,9.14051667 17.5445678,6.98345111 13.8936765,6.46411995 Z" id="Fill-7" fill="#0B71E6"></path>
                    <path d="M40.8133377,6.45238763 C47.2163136,5.24036337 53.2414668,5.35168941 54.453446,8.75902697 C55.3096709,11.1657713 53.5577963,14.7970247 50.5503947,18.3806305 C49.7398331,19.3463684 48.8129642,19.7109002 47.9234688,19.7610061 C45.1342751,13.5996253 44.5526276,12.4904754 40.8133377,6.45238763 Z" id="Fill-9" fill="#FB7D22"></path>
                    <path d="M40.8076557,6.45627322 C44.1942751,9.96772737 47.9346277,19.7632221 47.9346277,19.7632221 C46.3184818,19.8352842 44.7478465,18.8802582 44.284969,18.5985384 C37.3351507,14.3686905 33.0107396,11.47513 27.3306029,10.6849326 C30.714338,8.97888295 38.1009114,6.81411472 40.8076557,6.45627322 Z" id="Fill-12" fill="#FFF100"></path>
                </g>
            </g>
        </g>
    </g>
</svg>