<?xml version="1.0" encoding="UTF-8" standalone="no"?>
<svg width="24px" height="24px" viewBox="0 0 24 24" version="1.1" xmlns="http://www.w3.org/2000/svg" xmlns:xlink="http://www.w3.org/1999/xlink" xmlns:sketch="http://www.bohemiancoding.com/sketch/ns">
    <!-- Generator: Sketch 3.3.3 (12081) - http://www.bohemiancoding.com/sketch -->
    <title>icon-check</title>
    <desc>Created with Sketch.</desc>
    <defs></defs>
    <g id="Page-1" stroke="none" stroke-width="1" fill="none" fill-rule="evenodd" sketch:type="MSPage">
        <g id="icon-check" sketch:type="MSArtboardGroup" fill="#00AEFF">
            <g id="Imported-Layers-Copy-71" sketch:type="MSLayerGroup">
                <path d="M12.26976,23.368 C5.91744,23.368 0.74976,18.186 0.74976,11.815 C0.74976,5.445 5.91744,0.263 12.26976,0.263 C18.62304,0.263 23.78976,5.445 23.78976,11.815 C23.78976,18.186 18.62304,23.368 12.26976,23.368 L12.26976,23.368 Z M12.26976,1.263 C6.44736,1.263 1.70976,5.997 1.70976,11.815 C1.70976,17.634 6.44736,22.368 12.26976,22.368 C18.09312,22.368 22.83072,17.634 22.83072,11.815 C22.83072,5.997 18.09312,1.263 12.26976,1.263 L12.26976,1.263 Z" id="Fill-1" sketch:type="MSShapeGroup"></path>
                <path d="M12.26976,16.933 C12.15456,16.933 12.04224,16.89 11.95392,16.809 L8.10048,13.292 C7.89984,13.11 7.88064,12.794 8.05536,12.587 C8.23008,12.378 8.53344,12.359 8.73216,12.54 L12.15072,15.659 L17.03136,7.063 C17.16672,6.826 17.46048,6.749 17.68992,6.888 C17.91744,7.028 17.99328,7.335 17.85888,7.573 L12.68352,16.688 C12.61056,16.815 12.48672,16.903 12.34656,16.927 C12.32064,16.931 12.29568,16.933 12.26976,16.933" id="Fill-2" sketch:type="MSShapeGroup"></path>
            </g>
        </g>
    </g>
</svg>