<?xml version="1.0" encoding="UTF-8" standalone="no"?>
<svg width="21px" height="24px" viewBox="0 0 21 24" version="1.1" xmlns="http://www.w3.org/2000/svg" xmlns:xlink="http://www.w3.org/1999/xlink" xmlns:sketch="http://www.bohemiancoding.com/sketch/ns">
    <!-- Generator: Sketch 3.3.3 (12081) - http://www.bohemiancoding.com/sketch -->
    <title>icon-download</title>
    <desc>Created with Sketch.</desc>
    <defs></defs>
    <g id="Page-1" stroke="none" stroke-width="1" fill="none" fill-rule="evenodd" sketch:type="MSPage">
        <g id="icon-download" sketch:type="MSArtboardGroup" fill="#00AEFF">
            <g id="Imported-Layers-Copy-61" sketch:type="MSLayerGroup">
                <path d="M17.4553846,23.7092308 C19.0006154,23.7092308 20.2569231,22.452 20.2569231,20.9067692 L20.2569231,12.3618462 L19.3338462,12.3618462 L19.3338462,20.9067692 C19.3338462,21.9433846 18.492,22.7861538 17.4553846,22.7861538 L3.67476923,22.7861538 C2.63815385,22.7861538 1.79538462,21.9433846 1.79538462,20.9067692 L1.79538462,3.43476923 C1.79538462,2.39907692 2.63815385,1.55538462 3.67476923,1.55538462 L9.29538462,1.55538462 L9.29538462,0.632307692 L3.67476923,0.632307692 C2.12953846,0.632307692 0.872307692,1.88861538 0.872307692,3.43476923 L0.872307692,20.9067692 C0.872307692,22.452 2.12953846,23.7092308 3.67476923,23.7092308 L17.4553846,23.7092308 Z" id="Fill-1" sketch:type="MSShapeGroup"></path>
                <path d="M14.34,11.5541538 C14.3473846,11.5587692 14.3584615,11.5569231 14.3667692,11.5615385 C14.4369231,11.6049231 14.5144615,11.6363077 14.6030769,11.6363077 C14.6953846,11.6363077 14.7756923,11.6030769 14.8467692,11.5578462 C14.8550769,11.5513846 14.8661538,11.5541538 14.8744615,11.5486154 L19.4732308,8.20892308 C19.6790769,8.05938462 19.7252308,7.77138462 19.5756923,7.56461538 C19.4252308,7.35784615 19.1372308,7.31169231 18.9304615,7.46215385 L15.0646154,10.2692308 L15.0646154,1.25723077 C15.0646154,1.00246154 14.8587692,0.795692308 14.6030769,0.795692308 C14.3483077,0.795692308 14.1415385,1.00246154 14.1415385,1.25723077 L14.1415385,10.2913846 L10.0726154,7.45753846 C9.99230769,7.40123077 9.9,7.37446154 9.80953846,7.37446154 C9.66369231,7.37446154 9.52061538,7.44369231 9.43015385,7.572 C9.28430769,7.78061538 9.336,8.06953846 9.54553846,8.21538462 L14.34,11.5541538" id="Fill-2" sketch:type="MSShapeGroup"></path>
            </g>
        </g>
    </g>
</svg>