<?xml version="1.0" encoding="UTF-8" standalone="no"?>
<svg width="66px" height="65px" viewBox="0 0 66 65" version="1.1" xmlns="http://www.w3.org/2000/svg" xmlns:xlink="http://www.w3.org/1999/xlink" xmlns:sketch="http://www.bohemiancoding.com/sketch/ns">
    <!-- Generator: Sketch 3.3.3 (12081) - http://www.bohemiancoding.com/sketch -->
    <title>Gear</title>
    <desc>Created with Sketch.</desc>
    <defs></defs>
    <g id="Client---Manage-Projects" stroke="none" stroke-width="1" fill="none" fill-rule="evenodd" sketch:type="MSPage">
        <g id="project-phase-cards" sketch:type="MSArtboardGroup" transform="translate(-1169.000000, -454.000000)" stroke="#00AEFF" stroke-width="2">
            <path d="M1202.079,470.958864 C1193.26,471.071136 1186.137,478.176818 1186.183,486.815909 C1186.231,495.598788 1193.677,502.761591 1202.534,502.540985 C1211.378,502.322348 1218.426,495.145758 1218.259,486.531288 C1218.089,477.833106 1210.831,470.846591 1202.079,470.958864 L1202.079,470.958864 Z M1233.58,495.767197 L1233.58,496.410303 C1233.371,496.777652 1233.072,497.120379 1232.964,497.515303 C1232.203,500.322121 1230.944,501.762955 1227.423,501.763939 C1222.262,501.765909 1217.609,507.296818 1217.995,512.428864 C1218.179,514.880152 1217.331,515.926061 1215.193,516.553409 C1214.524,516.749394 1213.951,517.265455 1213.335,517.634773 L1212.028,517.634773 C1206.329,509.665379 1197.924,509.665379 1192.437,517.634773 L1191.131,517.634773 C1190.703,517.35803 1190.309,516.950303 1189.838,516.826212 C1187.172,516.120076 1186.266,514.718636 1186.432,511.788712 C1186.737,506.416364 1181.675,501.895909 1176.016,502.285909 C1173.668,502.448409 1172.636,501.679242 1172.053,499.68 C1171.759,498.671515 1171.341,497.698485 1171,496.766818 C1179.89,489.183485 1177.94,482.541667 1171.116,477.538636 C1171.869,474.211818 1172.72,471.704394 1177.394,471.677803 C1182.515,471.649242 1186.878,465.9775 1186.455,460.903561 C1186.259,458.547803 1187.158,457.613182 1189.139,457.029167 C1190.158,456.728788 1191.148,456.328939 1192.076,456 C1199.568,463.827576 1204.331,463.815758 1212.395,456.086667 C1217.369,457.555076 1217.369,457.555076 1217.938,462.663485 C1218.48,467.529621 1223.556,471.983106 1228.842,471.891515 C1230.718,471.85803 1231.636,472.423333 1232.226,474.051288 C1232.537,474.908106 1233.12,475.668409 1233.58,476.472045 L1233.58,477.759242 C1225.41,483.435909 1225.41,490.082652 1233.58,495.767197 L1233.58,495.767197 Z" id="Gear" sketch:type="MSShapeGroup"></path>
        </g>
    </g>
</svg>