<?xml version="1.0" encoding="UTF-8" standalone="no"?>
<svg width="65px" height="57px" viewBox="0 0 65 57" version="1.1" xmlns="http://www.w3.org/2000/svg" xmlns:xlink="http://www.w3.org/1999/xlink" xmlns:sketch="http://www.bohemiancoding.com/sketch/ns">
    <!-- Generator: Sketch 3.3.3 (12081) - http://www.bohemiancoding.com/sketch -->
    <title>project-incomplete</title>
    <desc>Created with Sketch.</desc>
    <defs></defs>
    <g id="Client---Manage-Projects" stroke="none" stroke-width="1" fill="none" fill-rule="evenodd" sketch:type="MSPage">
        <g id="project-phase-cards" sketch:type="MSArtboardGroup" transform="translate(-199.000000, -456.000000)" fill="#FFFFFF">
            <g id="project-incomplete" sketch:type="MSLayerGroup" transform="translate(199.000000, 456.000000)">
                <path d="M58.8554968,56.3100014 L5.11527916,56.3100014 L4.82861006,56.152456 C2.097575,54.6268916 0.764051781,53.2457437 0.308452679,51.4917385 C-0.15482506,49.719353 0.34172677,47.8104281 1.95935954,45.1006476 C9.82228337,31.9456083 18.1356872,18.1472587 26.6564142,4.09158505 C29.963347,-1.36473662 34.3273721,-1.35948511 37.6215072,4.08108203 C45.760862,17.4960712 54.0691467,31.291795 62.3211215,45.0901445 C63.9387542,47.7920478 64.4353061,49.7009727 63.9745879,51.4786097 C63.5164292,53.2378665 62.1880251,54.62164 59.5363359,56.1104439 L59.2496668,56.270615 L58.8554968,56.3100014 L58.8554968,56.3100014 Z M5.91897645,53.0750696 L58.3666236,53.0750696 C59.9202678,52.1665579 60.7342032,51.3919597 60.9261692,50.6514965 C61.1386114,49.8453893 60.7137269,48.5824005 59.6387178,46.7837574 C51.3893026,32.9906593 43.0835774,19.1975613 34.9442226,5.7904494 C32.9273007,2.45836461 31.3455016,2.47149339 29.3311393,5.79832667 C20.8104123,19.8461231 12.5046871,33.6418469 4.64176324,46.7942604 C3.56675412,48.5929035 3.14442911,49.858518 3.35431184,50.6593737 C3.5488373,51.3972113 4.36277278,52.1691836 5.91897645,53.0750696 L5.91897645,53.0750696 Z" id="Fill-2-Copy" sketch:type="MSShapeGroup"></path>
                <path d="M31.0114468,12.103539 L34.1185053,12.103539 L34.1185053,34.1835938 L31.0114468,34.1835938 L31.0114468,12.103539 Z" id="Fill-4-Copy" sketch:type="MSShapeGroup"></path>
                <path d="M32.5631412,46.1337533 C30.4640474,46.1337533 28.7594512,44.4291571 28.7594512,42.3300633 C28.7594512,40.2328044 30.4640474,38.5245384 32.5631412,38.5245384 C34.6604001,38.5245384 36.3705009,40.2328044 36.3705009,42.3300633 C36.3705009,44.4291571 34.6604001,46.1337533 32.5631412,46.1337533 L32.5631412,46.1337533 Z M32.5631412,40.7851009 C31.7117605,40.7851009 31.0181788,41.4768477 31.0181788,42.3300633 C31.0181788,43.181444 31.7117605,43.8750257 32.5631412,43.8750257 C33.4145219,43.8750257 34.1099384,43.181444 34.1099384,42.3300633 C34.1099384,41.4768477 33.4145219,40.7851009 32.5631412,40.7851009 L32.5631412,40.7851009 Z" id="Fill-6-Copy" sketch:type="MSShapeGroup"></path>
            </g>
        </g>
    </g>
</svg>