<?xml version="1.0" encoding="UTF-8" standalone="no"?>
<svg width="120px" height="120px" viewBox="0 0 120 120" version="1.1" xmlns="http://www.w3.org/2000/svg" xmlns:xlink="http://www.w3.org/1999/xlink" xmlns:sketch="http://www.bohemiancoding.com/sketch/ns">
    <!-- Generator: Sketch 3.3.3 (12081) - http://www.bohemiancoding.com/sketch -->
    <title>Project Launched</title>
    <desc>Created with Sketch.</desc>
    <defs></defs>
    <g id="Page-1" stroke="none" stroke-width="1" fill="none" fill-rule="evenodd" sketch:type="MSPage">
        <g id="Project-Launched" sketch:type="MSArtboardGroup" fill="#00AEFF">
            <g id="Imported-Layers" sketch:type="MSLayerGroup" transform="translate(0.000000, 1.000000)">
                <path d="M105.638571,48.5964286 C104.944286,48.5964286 104.25,48.3328571 103.720714,47.8014286 L71.445,15.5278571 C70.3864286,14.4671429 70.3864286,12.7507143 71.445,11.6921429 C72.5057143,10.6314286 74.2221429,10.6314286 75.2807143,11.6921429 L107.554286,43.9678571 C108.615,45.0264286 108.615,46.7428571 107.554286,47.8014286 C107.025,48.3328571 106.330714,48.5964286 105.638571,48.5964286" id="Fill-1" sketch:type="MSShapeGroup"></path>
                <path d="M24.8121429,59.9878571 C24.12,59.9878571 23.4257143,59.7221429 22.8964286,59.1928571 L4.18071429,40.4792857 C3.28285714,39.5792857 3.12642857,38.1778571 3.81,37.1042857 C6.18428571,33.3714286 8.45785714,30.4678571 10.9607143,27.965 C23.9914286,14.6535714 44.3871429,10.7107143 61.6885714,18.1678571 C63.0664286,18.7614286 63.6985714,20.3578571 63.105,21.7335714 C62.5114286,23.1071429 60.9235714,23.7478571 59.5435714,23.1521429 C44.2864286,16.5778571 26.3121429,20.0407143 14.8178571,31.7814286 C12.9942857,33.6007143 11.3078571,35.6707143 9.57857143,38.2057143 L26.73,55.3571429 C27.7907143,56.4178571 27.7907143,58.1342857 26.73,59.1928571 C26.2007143,59.7221429 25.5064286,59.9878571 24.8121429,59.9878571" id="Fill-2" sketch:type="MSShapeGroup"></path>
                <path d="M80.9571429,116.130714 C80.2585714,116.130714 79.5642857,115.860714 79.0392857,115.337857 L60.0535714,96.3521429 C58.995,95.2914286 58.995,93.575 60.0535714,92.5164286 C61.1142857,91.4557143 62.8285714,91.4557143 63.8892857,92.5164286 L81.3128571,109.937857 C83.8521429,108.206429 85.9178571,106.522143 87.72,104.72 C99.6642857,92.7735714 102.957857,75.005 96.105,59.4542857 C95.5007143,58.085 96.1242857,56.4842857 97.4935714,55.88 C98.8671429,55.2757143 100.463571,55.9014286 101.067857,57.2664286 C108.831429,74.8828571 105.096429,95.0128571 91.5535714,108.555714 C89.0571429,111.054286 86.1514286,113.325714 82.4142857,115.708571 C81.9664286,115.991429 81.4607143,116.130714 80.9571429,116.130714" id="Fill-3" sketch:type="MSShapeGroup"></path>
                <path d="M47.325,105.283571 C46.62,105.283571 45.9257143,105.007143 45.4071429,104.488571 L14.76,73.8392857 C13.9885714,73.07 13.755,71.915 14.1621429,70.9057143 C14.43,70.2371429 41.9764286,4.16857143 116.335714,0.0521428571 C117.109286,0.00928571429 117.863571,0.298571429 118.407857,0.847142857 C118.954286,1.39357143 119.239286,2.14785714 119.194286,2.92142857 C114.805714,76.9978571 49.0178571,104.807857 48.3514286,105.077857 C48.0214286,105.217143 47.6721429,105.283571 47.325,105.283571 L47.325,105.283571 Z M19.9157143,71.3257143 L47.9142857,99.3221429 C57.6814286,94.6742857 108.308571,67.6742857 113.556429,5.67714286 C51.3257143,10.7107143 24.5078571,61.5521429 19.9157143,71.3257143 L19.9157143,71.3257143 Z" id="Fill-4" sketch:type="MSShapeGroup"></path>
                <path d="M66.5828571,66.2257143 C59.1064286,66.2257143 53.0207143,60.1421429 53.0207143,52.6657143 C53.0207143,45.1871429 59.1064286,39.1035714 66.5828571,39.1035714 C74.0592857,39.1035714 80.145,45.1871429 80.145,52.6657143 C80.145,60.1421429 74.0592857,66.2257143 66.5828571,66.2257143 L66.5828571,66.2257143 Z M66.5828571,44.5292857 C62.0957143,44.5292857 58.4464286,48.1785714 58.4464286,52.6657143 C58.4464286,57.1507143 62.0957143,60.8 66.5828571,60.8 C71.07,60.8 74.7192857,57.1507143 74.7192857,52.6657143 C74.7192857,48.1785714 71.07,44.5292857 66.5828571,44.5292857 L66.5828571,44.5292857 Z" id="Fill-5" sketch:type="MSShapeGroup"></path>
                <path d="M7.47428571,119 C5.35285714,119 3.675,118.895 2.91214286,118.835 C1.57285714,118.734286 0.512142857,117.673571 0.411428571,116.336429 C0.212142857,113.724286 -0.516428571,100.487857 4.48285714,95.7414286 C7.08857143,93.1485714 10.5021429,91.7214286 14.1,91.7214286 C17.7085714,91.7214286 21.1371429,93.1592857 23.7492857,95.7714286 C29.1578571,101.18 29.1578571,109.655 23.7492857,115.065714 C20.2028571,118.393571 12.5678571,118.997857 7.47428571,119 L7.47428571,119 Z M5.70642857,113.544286 C11.0528571,113.702857 17.91,113.105 19.9778571,111.17 C23.1707143,107.970714 23.1707143,102.864286 19.9135714,99.6071429 C16.74,96.4335714 11.4621429,96.4335714 8.28857143,99.6071429 C8.26714286,99.6285714 8.24571429,99.6478571 8.22428571,99.6671429 C6.21214286,101.555 5.57785714,108.251429 5.70642857,113.544286 L5.70642857,113.544286 Z" id="Fill-6" sketch:type="MSShapeGroup"></path>
            </g>
        </g>
    </g>
</svg>