<?xml version="1.0" encoding="UTF-8" standalone="no"?>
<svg width="120px" height="120px" viewBox="0 0 120 120" version="1.1" xmlns="http://www.w3.org/2000/svg" xmlns:xlink="http://www.w3.org/1999/xlink" xmlns:sketch="http://www.bohemiancoding.com/sketch/ns">
    <!-- Generator: Sketch 3.3.3 (12081) - http://www.bohemiancoding.com/sketch -->
    <title>Quote Generated</title>
    <desc>Created with Sketch.</desc>
    <defs></defs>
    <g id="Page-1" stroke="none" stroke-width="1" fill="none" fill-rule="evenodd" sketch:type="MSPage">
        <g id="Quote-Generated" sketch:type="MSArtboardGroup" fill="#00AEFF">
            <g id="Imported-Layers" sketch:type="MSLayerGroup" transform="translate(15.652174, 0.000000)">
                <path d="M70.4347826,120 L18.2608696,120 C8.19391304,120 0,111.806087 0,101.73913 L0,18.2608696 C0,8.19130435 8.19391304,0 18.2608696,0 L70.4347826,0 C80.5017391,0 88.6956522,8.19130435 88.6956522,18.2608696 L88.6956522,101.73913 C88.6956522,111.806087 80.5017391,120 70.4347826,120 L70.4347826,120 Z M18.2608696,5.2173913 C11.0686957,5.2173913 5.2173913,11.0686957 5.2173913,18.2608696 L5.2173913,101.73913 C5.2173913,108.931304 11.0686957,114.782609 18.2608696,114.782609 L70.4347826,114.782609 C77.6269565,114.782609 83.4782609,108.931304 83.4782609,101.73913 L83.4782609,18.2608696 C83.4782609,11.0686957 77.6269565,5.2173913 70.4347826,5.2173913 L18.2608696,5.2173913 L18.2608696,5.2173913 Z" id="Fill-1" sketch:type="MSShapeGroup"></path>
                <path d="M26.0869565,46.9565217 L62.6086957,46.9565217 L62.6086957,52.173913 L26.0869565,52.173913 L26.0869565,46.9565217 Z" id="Fill-2" sketch:type="MSShapeGroup"></path>
                <path d="M26.0869565,26.0869565 L62.6086957,26.0869565 L62.6086957,31.3043478 L26.0869565,31.3043478 L26.0869565,26.0869565 Z" id="Fill-3" sketch:type="MSShapeGroup"></path>
                <path d="M26.0869565,67.826087 L62.6086957,67.826087 L62.6086957,73.0434783 L26.0869565,73.0434783 L26.0869565,67.826087 Z" id="Fill-4" sketch:type="MSShapeGroup"></path>
                <path d="M26.0869565,88.6956522 L46.9565217,88.6956522 L46.9565217,93.9130435 L26.0869565,93.9130435 L26.0869565,88.6956522 Z" id="Fill-5" sketch:type="MSShapeGroup"></path>
                <path d="M65.3243478,80.8826087 L65.3243478,83.6426087 C68.193913,84.0104348 70.2547826,85.9904348 70.2547826,88.9878261 L66.9156522,88.9878261 C66.9156522,87.5817391 65.8982609,86.6426087 64.2286957,86.6426087 C62.7443478,86.6426087 61.5443478,87.4773913 61.5443478,88.7530435 C61.5443478,89.3269565 61.7530435,90.2921739 63.6808696,90.8165217 L65.8982609,91.466087 C69.9130435,92.5591304 70.9565217,94.8313043 70.8,96.9417391 C70.6434783,99.9156522 68.2434783,101.713043 65.3243478,101.973913 L65.3243478,104.921739 L63.5269565,104.921739 L63.5269565,101.973913 C60.213913,101.608696 58.0513043,99.3130435 58.0513043,96.4982609 L61.3878261,96.4982609 C61.44,97.8026087 62.5591304,99.0286957 64.4921739,99.0286957 C66.2895652,99.0286957 67.3852174,98.0895652 67.4608696,96.8634783 C67.5417391,95.6634783 66.7330435,94.8808696 64.9852174,94.4113043 L62.7678261,93.84 C58.8573913,92.6921739 58.2313043,90.4226087 58.2313043,88.833913 C58.2313043,85.9382609 60.5530435,83.906087 63.5269565,83.6191304 L63.5269565,80.8826087 L65.3243478,80.8826087" id="Fill-6" sketch:type="MSShapeGroup"></path>
            </g>
        </g>
    </g>
</svg>