<?xml version="1.0" encoding="UTF-8" standalone="no"?>
<svg width="53px" height="62px" viewBox="0 0 53 62" version="1.1" xmlns="http://www.w3.org/2000/svg" xmlns:xlink="http://www.w3.org/1999/xlink" xmlns:sketch="http://www.bohemiancoding.com/sketch/ns">
    <!-- Generator: Sketch 3.3.3 (12081) - http://www.bohemiancoding.com/sketch -->
    <title>Submissions-received</title>
    <desc>Created with Sketch.</desc>
    <defs></defs>
    <g id="Client---Manage-Projects" stroke="none" stroke-width="1" fill="none" fill-rule="evenodd" sketch:type="MSPage">
        <g id="project-phase-cards" sketch:type="MSArtboardGroup" transform="translate(-205.000000, -862.000000)" fill="#27A7DF">
            <g id="Submissions-received" sketch:type="MSLayerGroup" transform="translate(203.923077, 860.302734)">
                <path d="M9.54584615,63.4806154 L46.2941538,63.4806154 C50.4147692,63.4806154 53.7649231,60.1255385 53.7649231,56.0049231 L53.7649231,33.2209231 L51.3058462,33.2209231 L51.3058462,56.0049231 C51.3058462,58.7716923 49.056,61.0190769 46.2941538,61.0190769 L9.54584615,61.0190769 C6.78153846,61.0190769 4.53415385,58.7716923 4.53415385,56.0049231 L4.53415385,9.41292308 C4.53415385,6.65107692 6.78153846,4.40369231 9.54584615,4.40369231 L24.5366154,4.40369231 L24.5366154,1.94215385 L9.54584615,1.94215385 C5.42523077,1.94215385 2.07261538,5.29230769 2.07261538,9.41292308 L2.07261538,56.0049231 C2.07261538,60.1255385 5.42523077,63.4806154 9.54584615,63.4806154" id="Fill-1" sketch:type="MSShapeGroup"></path>
                <path d="M37.9864615,31.0646154 C38.0086154,31.0793846 38.0356923,31.072 38.0578462,31.0843077 C38.2449231,31.2024615 38.4516923,31.2861538 38.688,31.2861538 C38.9341538,31.2861538 39.1458462,31.1950769 39.3378462,31.0744615 C39.36,31.0596923 39.3895385,31.0646154 39.4141538,31.0498462 L51.6750769,22.1464615 C52.224,21.7452308 52.3470769,20.9772308 51.9483077,20.4258462 C51.5470769,19.8769231 50.7815385,19.7538462 50.2276923,20.1550769 L39.9187692,27.6406154 L39.9187692,3.60615385 C39.9187692,2.92676923 39.3698462,2.37538462 38.688,2.37538462 C38.0086154,2.37538462 37.4596923,2.92676923 37.4596923,3.60615385 L37.4596923,27.6972308 L26.6067692,20.1403077 C26.3926154,19.9926154 26.1489231,19.9187692 25.9052308,19.9187692 C25.5163077,19.9187692 25.1347692,20.1058462 24.8935385,20.4455385 C24.5046154,21.0043077 24.6449231,21.7723077 25.2012308,22.1612308 L37.9864615,31.0646154" id="Fill-2" sketch:type="MSShapeGroup"></path>
            </g>
        </g>
    </g>
</svg>