<?xml version="1.0" encoding="utf-8"?>
<!-- Generator: Adobe Illustrator 19.1.0, SVG Export Plug-In . SVG Version: 6.00 Build 0)  -->
<!DOCTYPE svg PUBLIC "-//W3C//DTD SVG 1.1//EN" "http://www.w3.org/Graphics/SVG/1.1/DTD/svg11.dtd">
<svg version="1.1" id="Layer_1" xmlns:sketch="http://www.bohemiancoding.com/sketch/ns"
	 xmlns="http://www.w3.org/2000/svg" xmlns:xlink="http://www.w3.org/1999/xlink" x="0px" y="0px" viewBox="-195 374 220 45"
	 style="enable-background:new -195 374 220 45;" xml:space="preserve">
<style type="text/css">
	.st0{filter:url(#Adobe_OpacityMaskFilter);}
	.st1{fill:#FFFFFF;}
	.st2{mask:url(#mask-2);fill:#8AC342;}
	.st3{filter:url(#Adobe_OpacityMaskFilter_1_);}
	.st4{mask:url(#mask-4);fill:#68A442;}
	.st5{filter:url(#Adobe_OpacityMaskFilter_2_);}
	.st6{mask:url(#mask-6);fill:#F59221;}
	.st7{filter:url(#Adobe_OpacityMaskFilter_3_);}
	.st8{mask:url(#mask-8);fill:#E57224;}
	.st9{filter:url(#Adobe_OpacityMaskFilter_4_);}
	.st10{mask:url(#mask-10);fill:#8AC342;}
	.st11{filter:url(#Adobe_OpacityMaskFilter_5_);}
	.st12{mask:url(#mask-12);fill:#8AC342;}
	.st13{filter:url(#Adobe_OpacityMaskFilter_6_);}
	.st14{mask:url(#mask-14);fill:#8AC342;}
	.st15{filter:url(#Adobe_OpacityMaskFilter_7_);}
	.st16{mask:url(#mask-16);fill:#8AC342;}
	.st17{filter:url(#Adobe_OpacityMaskFilter_8_);}
	.st18{mask:url(#mask-18);fill:#8AC342;}
	.st19{filter:url(#Adobe_OpacityMaskFilter_9_);}
	.st20{mask:url(#mask-20);fill:#8AC342;}
	.st21{filter:url(#Adobe_OpacityMaskFilter_10_);}
	.st22{mask:url(#mask-22);fill:#8AC342;}
	.st23{filter:url(#Adobe_OpacityMaskFilter_11_);}
	.st24{mask:url(#mask-24);fill:#F4CA18;}
	.st25{filter:url(#Adobe_OpacityMaskFilter_12_);}
	.st26{mask:url(#mask-26);fill:#F4CA18;}
	.st27{filter:url(#Adobe_OpacityMaskFilter_13_);}
	.st28{mask:url(#mask-28);fill:#F4CA18;}
	.st29{filter:url(#Adobe_OpacityMaskFilter_14_);}
	.st30{mask:url(#mask-30);fill:#F4CA18;}
	.st31{filter:url(#Adobe_OpacityMaskFilter_15_);}
	.st32{mask:url(#mask-32);fill:#F4CA18;}
	.st33{filter:url(#Adobe_OpacityMaskFilter_16_);}
	.st34{mask:url(#mask-34);fill:#F4CA18;}
	.st35{filter:url(#Adobe_OpacityMaskFilter_17_);}
	.st36{mask:url(#mask-36);fill:#F4CA18;}
	.st37{filter:url(#Adobe_OpacityMaskFilter_18_);}
	.st38{mask:url(#mask-38);fill:#D7DE28;}
	.st39{filter:url(#Adobe_OpacityMaskFilter_19_);}
	.st40{mask:url(#mask-40);fill:#2CA7DF;}
	.st41{filter:url(#Adobe_OpacityMaskFilter_20_);}
	.st42{mask:url(#mask-42);fill:#2CA7DF;}
	.st43{filter:url(#Adobe_OpacityMaskFilter_21_);}
	.st44{mask:url(#mask-44);fill:#0D72B8;}
	.st45{filter:url(#Adobe_OpacityMaskFilter_22_);}
	.st46{mask:url(#mask-46);fill:#FEFEFE;}
	.st47{fill:#C4C3C3;}
</style>
<title>tc-connect-light</title>
<desc>Created with Sketch.</desc>
<g id="Page-1" sketch:type="MSPage">
	<g id="tc-connect-light" sketch:type="MSArtboardGroup">
		<g id="Page-1-Copy" sketch:type="MSLayerGroup">
			<g id="Group-3" transform="translate(13.508772, 0.000000)">
				<g id="Clip-2">
				</g>
				<defs>
					<filter id="Adobe_OpacityMaskFilter" filterUnits="userSpaceOnUse" x="-199.3" y="369.3" width="46" height="22.8">
						<feColorMatrix  type="matrix" values="1 0 0 0 0  0 1 0 0 0  0 0 1 0 0  0 0 0 1 0"/>
					</filter>
				</defs>
				<mask maskUnits="userSpaceOnUse" x="-199.3" y="369.3" width="46" height="22.8" id="mask-2">
					<g class="st0">
						<path id="path-1" class="st1" d="M-194.5,384.6c4.2,0.3,9.2,1.3,14.1,2.6l0,0c7.1-3,15-5.1,22.3-6l0,0
							c-4.6-4.5-10.7-7.1-16.9-7.1l0,0C-182.6,374.2-189.5,378.2-194.5,384.6L-194.5,384.6z"/>
					</g>
				</mask>
				<path id="Fill-1" sketch:type="MSShapeGroup" class="st2" d="M-199.3,369.3h46v22.8h-46V369.3z"/>
			</g>
			<g id="Group-6" transform="translate(13.508772, 9.649123)">
				<g id="Clip-5">
				</g>
				<defs>
					<filter id="Adobe_OpacityMaskFilter_1_" filterUnits="userSpaceOnUse" x="-199.3" y="369.3" width="23.8" height="13.1">
						<feColorMatrix  type="matrix" values="1 0 0 0 0  0 1 0 0 0  0 0 1 0 0  0 0 0 1 0"/>
					</filter>
				</defs>
				<mask maskUnits="userSpaceOnUse" x="-199.3" y="369.3" width="23.8" height="13.1" id="mask-4">
					<g class="st3">
						<path id="path-3" class="st1" d="M-194.5,375c4.2,0.3,9.3,1.3,14.1,2.6l0,0c-4.8-2.4-12-3.3-13.5-3.5l0,0
							C-194,374.3-194.3,374.7-194.5,375L-194.5,375z"/>
					</g>
				</mask>
				<path id="Fill-4" sketch:type="MSShapeGroup" class="st4" d="M-199.3,369.3h23.8v13.1h-23.8V369.3z"/>
			</g>
			<g id="Group-9" transform="translate(50.175439, 6.754386)">
				<g id="Clip-8">
				</g>
				<defs>
					<filter id="Adobe_OpacityMaskFilter_2_" filterUnits="userSpaceOnUse" x="-199.6" y="369.5" width="31.4" height="30.3">
						<feColorMatrix  type="matrix" values="1 0 0 0 0  0 1 0 0 0  0 0 1 0 0  0 0 0 1 0"/>
					</filter>
				</defs>
				<mask maskUnits="userSpaceOnUse" x="-199.6" y="369.5" width="31.4" height="30.3" id="mask-6">
					<g class="st5">
						<path id="path-5" class="st1" d="M-194.8,374.5c0.1,0.1,4.3,4.3,6.8,9.6l0,0c2.5,5.4,3.6,10.8,3.6,10.8l0,0
							c3.6-0.5,12.6-8.2,11.1-14.8l0,0c-1.1-4.9-10-5.9-16.3-5.9l0,0C-191.7,374.3-193.7,374.4-194.8,374.5L-194.8,374.5z"/>
					</g>
				</mask>
				<path id="Fill-7" sketch:type="MSShapeGroup" class="st6" d="M-199.6,369.5h31.4v30.3h-31.4V369.5z"/>
			</g>
			<g id="Group-12" transform="translate(50.175439, 6.754386)">
				<g id="Clip-11">
				</g>
				<defs>
					<filter id="Adobe_OpacityMaskFilter_3_" filterUnits="userSpaceOnUse" x="-199.6" y="369.5" width="20.1" height="30.3">
						<feColorMatrix  type="matrix" values="1 0 0 0 0  0 1 0 0 0  0 0 1 0 0  0 0 0 1 0"/>
					</filter>
				</defs>
				<mask maskUnits="userSpaceOnUse" x="-199.6" y="369.5" width="20.1" height="30.3" id="mask-8">
					<g class="st7">
						<path id="path-7" class="st1" d="M-194.8,374.5c0.1,0.1,4.3,4.3,6.8,9.6l0,0c2.5,5.4,3.6,10.8,3.6,10.8l0,0
							c-0.2-2.1-0.8-6.5-2.8-11.4l0,0c-1.3-3.2-3.9-7-5.5-9.2l0,0C-193.5,374.4-194.2,374.5-194.8,374.5L-194.8,374.5z"/>
					</g>
				</mask>
				<path id="Fill-10" sketch:type="MSShapeGroup" class="st8" d="M-199.6,369.5h20.1v30.3h-20.1V369.5z"/>
			</g>
			<g id="Group-15" transform="translate(55.000000, 13.508772)">
				<g id="Clip-14">
				</g>
				<defs>
					<filter id="Adobe_OpacityMaskFilter_4_" filterUnits="userSpaceOnUse" x="-199.2" y="369.7" width="10" height="10.3">
						<feColorMatrix  type="matrix" values="1 0 0 0 0  0 1 0 0 0  0 0 1 0 0  0 0 0 1 0"/>
					</filter>
				</defs>
				<mask maskUnits="userSpaceOnUse" x="-199.2" y="369.7" width="10" height="10.3" id="mask-10">
					<g class="st9">
						<path id="path-9" class="st1" d="M-194,375.1c-0.1-0.2-0.3-0.4-0.4-0.6l0,0C-194.2,374.7-194.1,374.9-194,375.1L-194,375.1z"
							/>
					</g>
				</mask>
				<path id="Fill-13" sketch:type="MSShapeGroup" class="st10" d="M-199.2,369.7h10v10.3h-10V369.7z"/>
			</g>
			<g id="Group-18" transform="translate(54.035088, 12.543860)">
				<g id="Clip-17">
				</g>
				<defs>
					<filter id="Adobe_OpacityMaskFilter_5_" filterUnits="userSpaceOnUse" x="-198.9" y="369.4" width="10.1" height="10.3">
						<feColorMatrix  type="matrix" values="1 0 0 0 0  0 1 0 0 0  0 0 1 0 0  0 0 0 1 0"/>
					</filter>
				</defs>
				<mask maskUnits="userSpaceOnUse" x="-198.9" y="369.4" width="10.1" height="10.3" id="mask-12">
					<g class="st11">
						<path id="path-11" class="st1" d="M-193.7,374.9c-0.1-0.2-0.3-0.4-0.4-0.6l0,0C-194,374.5-193.8,374.7-193.7,374.9
							L-193.7,374.9z"/>
					</g>
				</mask>
				<path id="Fill-16" sketch:type="MSShapeGroup" class="st12" d="M-198.9,369.4h10.1v10.3h-10.1V369.4z"/>
			</g>
			<g id="Group-21" transform="translate(52.105263, 8.684211)">
				<g id="Clip-20">
				</g>
				<defs>
					<filter id="Adobe_OpacityMaskFilter_6_" filterUnits="userSpaceOnUse" x="-199.4" y="370.1" width="10.1" height="10.2">
						<feColorMatrix  type="matrix" values="1 0 0 0 0  0 1 0 0 0  0 0 1 0 0  0 0 0 1 0"/>
					</filter>
				</defs>
				<mask maskUnits="userSpaceOnUse" x="-199.4" y="370.1" width="10.1" height="10.2" id="mask-14">
					<g class="st13">
						<path id="path-13" class="st1" d="M-194.2,375.4c-0.2-0.2-0.3-0.4-0.5-0.6l0,0C-194.5,375.1-194.3,375.2-194.2,375.4
							L-194.2,375.4z"/>
					</g>
				</mask>
				<path id="Fill-19" sketch:type="MSShapeGroup" class="st14" d="M-199.4,370.1h10.1v10.2h-10.1V370.1z"/>
			</g>
			<g id="Group-24" transform="translate(51.140351, 7.719298)">
				<g id="Clip-23">
				</g>
				<defs>
					<filter id="Adobe_OpacityMaskFilter_7_" filterUnits="userSpaceOnUse" x="-199.3" y="370" width="10.1" height="10.2">
						<feColorMatrix  type="matrix" values="1 0 0 0 0  0 1 0 0 0  0 0 1 0 0  0 0 0 1 0"/>
					</filter>
				</defs>
				<mask maskUnits="userSpaceOnUse" x="-199.3" y="370" width="10.1" height="10.2" id="mask-16">
					<g class="st15">
						<path id="path-15" class="st1" d="M-194,375.4c-0.2-0.2-0.3-0.4-0.5-0.5l0,0C-194.4,375-194.2,375.2-194,375.4L-194,375.4z"/>
					</g>
				</mask>
				<path id="Fill-22" sketch:type="MSShapeGroup" class="st16" d="M-199.3,370h10.1v10.2h-10.1V370z"/>
			</g>
			<g id="Group-27" transform="translate(53.070175, 9.649123)">
				<g id="Clip-26">
				</g>
				<defs>
					<filter id="Adobe_OpacityMaskFilter_8_" filterUnits="userSpaceOnUse" x="-199.6" y="370.1" width="10.1" height="10.2">
						<feColorMatrix  type="matrix" values="1 0 0 0 0  0 1 0 0 0  0 0 1 0 0  0 0 0 1 0"/>
					</filter>
				</defs>
				<mask maskUnits="userSpaceOnUse" x="-199.6" y="370.1" width="10.1" height="10.2" id="mask-18">
					<g class="st17">
						<path id="path-17" class="st1" d="M-194.3,375.5c-0.1-0.2-0.3-0.4-0.4-0.6l0,0C-194.6,375.1-194.4,375.3-194.3,375.5
							L-194.3,375.5z"/>
					</g>
				</mask>
				<path id="Fill-25" sketch:type="MSShapeGroup" class="st18" d="M-199.6,370.1h10.1v10.2h-10.1V370.1z"/>
			</g>
			<g id="Group-30" transform="translate(50.175439, 6.754386)">
				<g id="Clip-29">
				</g>
				<defs>
					<filter id="Adobe_OpacityMaskFilter_9_" filterUnits="userSpaceOnUse" x="-199.3" y="370" width="10.2" height="10.2">
						<feColorMatrix  type="matrix" values="1 0 0 0 0  0 1 0 0 0  0 0 1 0 0  0 0 0 1 0"/>
					</filter>
				</defs>
				<mask maskUnits="userSpaceOnUse" x="-199.3" y="370" width="10.2" height="10.2" id="mask-20">
					<g class="st19">
						<path id="path-19" class="st1" d="M-194,375.4c-0.2-0.2-0.3-0.3-0.5-0.5l0,0C-194.3,375-194.1,375.2-194,375.4L-194,375.4z"/>
					</g>
				</mask>
				<path id="Fill-28" sketch:type="MSShapeGroup" class="st20" d="M-199.3,370h10.2v10.2h-10.2V370z"/>
			</g>
			<g id="Group-33" transform="translate(54.035088, 11.578947)">
				<g id="Clip-32">
				</g>
				<defs>
					<filter id="Adobe_OpacityMaskFilter_10_" filterUnits="userSpaceOnUse" x="-199.7" y="369.3" width="10.1" height="10.3">
						<feColorMatrix  type="matrix" values="1 0 0 0 0  0 1 0 0 0  0 0 1 0 0  0 0 0 1 0"/>
					</filter>
				</defs>
				<mask maskUnits="userSpaceOnUse" x="-199.7" y="369.3" width="10.1" height="10.3" id="mask-22">
					<g class="st21">
						<path id="path-21" class="st1" d="M-194.5,374.7c-0.1-0.2-0.3-0.4-0.4-0.6l0,0C-194.7,374.3-194.6,374.5-194.5,374.7
							L-194.5,374.7z"/>
					</g>
				</mask>
				<path id="Fill-31" sketch:type="MSShapeGroup" class="st22" d="M-199.7,369.3h10.1v10.3h-10.1V369.3z"/>
			</g>
			<g id="Group-36" transform="translate(51.140351, 7.719298)">
				<g id="Clip-35">
				</g>
				<defs>
					<filter id="Adobe_OpacityMaskFilter_11_" filterUnits="userSpaceOnUse" x="-199.8" y="369.6" width="10.1" height="10.1">
						<feColorMatrix  type="matrix" values="1 0 0 0 0  0 1 0 0 0  0 0 1 0 0  0 0 0 1 0"/>
					</filter>
				</defs>
				<mask maskUnits="userSpaceOnUse" x="-199.8" y="369.6" width="10.1" height="10.1" id="mask-24">
					<g class="st23">
						<path id="path-23" class="st1" d="M-194.5,374.8c-0.1-0.1-0.3-0.3-0.4-0.4l0,0C-194.8,374.6-194.7,374.7-194.5,374.8
							L-194.5,374.8z"/>
					</g>
				</mask>
				<path id="Fill-34" sketch:type="MSShapeGroup" class="st24" d="M-199.8,369.6h10.1v10.1h-10.1V369.6z"/>
			</g>
			<g id="Group-39" transform="translate(50.175439, 6.754386)">
				<g id="Clip-38">
				</g>
				<defs>
					<filter id="Adobe_OpacityMaskFilter_12_" filterUnits="userSpaceOnUse" x="-199.6" y="369.7" width="10" height="10">
						<feColorMatrix  type="matrix" values="1 0 0 0 0  0 1 0 0 0  0 0 1 0 0  0 0 0 1 0"/>
					</filter>
				</defs>
				<mask maskUnits="userSpaceOnUse" x="-199.6" y="369.7" width="10" height="10" id="mask-26">
					<g class="st25">
						<path id="path-25" class="st1" d="M-194.8,374.6c0.1,0.1,0.2,0.2,0.3,0.3l0,0C-194.6,374.8-194.7,374.7-194.8,374.6
							L-194.8,374.6L-194.8,374.6z"/>
					</g>
				</mask>
				<path id="Fill-37" sketch:type="MSShapeGroup" class="st26" d="M-199.6,369.7h10v10h-10V369.7z"/>
			</g>
			<g id="Group-42" transform="translate(55.000000, 12.543860)">
				<g id="Clip-41">
				</g>
				<defs>
					<filter id="Adobe_OpacityMaskFilter_13_" filterUnits="userSpaceOnUse" x="-199.5" y="370.1" width="10" height="10.2">
						<feColorMatrix  type="matrix" values="1 0 0 0 0  0 1 0 0 0  0 0 1 0 0  0 0 0 1 0"/>
					</filter>
				</defs>
				<mask maskUnits="userSpaceOnUse" x="-199.5" y="370.1" width="10" height="10.2" id="mask-28">
					<g class="st27">
						<path id="path-27" class="st1" d="M-194.3,375.4c-0.1-0.2-0.2-0.4-0.3-0.5l0,0C-194.6,375.1-194.5,375.3-194.3,375.4
							L-194.3,375.4z"/>
					</g>
				</mask>
				<path id="Fill-40" sketch:type="MSShapeGroup" class="st28" d="M-199.5,370.1h10v10.2h-10V370.1z"/>
			</g>
			<g id="Group-45" transform="translate(54.035088, 11.578947)">
				<g id="Clip-44">
				</g>
				<defs>
					<filter id="Adobe_OpacityMaskFilter_14_" filterUnits="userSpaceOnUse" x="-199.3" y="369.9" width="10" height="10.2">
						<feColorMatrix  type="matrix" values="1 0 0 0 0  0 1 0 0 0  0 0 1 0 0  0 0 0 1 0"/>
					</filter>
				</defs>
				<mask maskUnits="userSpaceOnUse" x="-199.3" y="369.9" width="10" height="10.2" id="mask-30">
					<g class="st29">
						<path id="path-29" class="st1" d="M-194.1,375.2c-0.1-0.2-0.2-0.4-0.4-0.5l0,0C-194.3,374.9-194.2,375.1-194.1,375.2
							L-194.1,375.2z"/>
					</g>
				</mask>
				<path id="Fill-43" sketch:type="MSShapeGroup" class="st30" d="M-199.3,369.9h10v10.2h-10V369.9z"/>
			</g>
			<g id="Group-48" transform="translate(53.070175, 10.614035)">
				<g id="Clip-47">
				</g>
				<defs>
					<filter id="Adobe_OpacityMaskFilter_15_" filterUnits="userSpaceOnUse" x="-199.1" y="369.7" width="10" height="10.2">
						<feColorMatrix  type="matrix" values="1 0 0 0 0  0 1 0 0 0  0 0 1 0 0  0 0 0 1 0"/>
					</filter>
				</defs>
				<mask maskUnits="userSpaceOnUse" x="-199.1" y="369.7" width="10" height="10.2" id="mask-32">
					<g class="st31">
						<path id="path-31" class="st1" d="M-193.9,375.1c-0.1-0.2-0.2-0.3-0.4-0.5l0,0C-194.2,374.7-194,374.9-193.9,375.1
							L-193.9,375.1z"/>
					</g>
				</mask>
				<path id="Fill-46" sketch:type="MSShapeGroup" class="st32" d="M-199.1,369.7h10v10.2h-10V369.7z"/>
			</g>
			<g id="Group-51" transform="translate(51.140351, 8.684211)">
				<g id="Clip-50">
				</g>
				<defs>
					<filter id="Adobe_OpacityMaskFilter_16_" filterUnits="userSpaceOnUse" x="-198.9" y="369.6" width="10" height="10.1">
						<feColorMatrix  type="matrix" values="1 0 0 0 0  0 1 0 0 0  0 0 1 0 0  0 0 0 1 0"/>
					</filter>
				</defs>
				<mask maskUnits="userSpaceOnUse" x="-198.9" y="369.6" width="10" height="10.1" id="mask-34">
					<g class="st33">
						<path id="path-33" class="st1" d="M-193.6,374.9c-0.1-0.2-0.3-0.3-0.4-0.5l0,0C-193.9,374.6-193.8,374.7-193.6,374.9
							L-193.6,374.9z"/>
					</g>
				</mask>
				<path id="Fill-49" sketch:type="MSShapeGroup" class="st34" d="M-198.9,369.6h10v10.1h-10V369.6z"/>
			</g>
			<g id="Group-54" transform="translate(52.105263, 9.649123)">
				<g id="Clip-53">
				</g>
				<defs>
					<filter id="Adobe_OpacityMaskFilter_17_" filterUnits="userSpaceOnUse" x="-199" y="369.6" width="10" height="10.1">
						<feColorMatrix  type="matrix" values="1 0 0 0 0  0 1 0 0 0  0 0 1 0 0  0 0 0 1 0"/>
					</filter>
				</defs>
				<mask maskUnits="userSpaceOnUse" x="-199" y="369.6" width="10" height="10.1" id="mask-36">
					<g class="st35">
						<path id="path-35" class="st1" d="M-193.8,375c-0.1-0.2-0.3-0.3-0.4-0.5l0,0C-194,374.6-193.9,374.8-193.8,375L-193.8,375z"/>
					</g>
				</mask>
				<path id="Fill-52" sketch:type="MSShapeGroup" class="st36" d="M-199,369.6h10v10.1h-10V369.6z"/>
			</g>
			<g id="Group-57" transform="translate(27.982456, 6.754386)">
				<g id="Clip-56">
				</g>
				<defs>
					<filter id="Adobe_OpacityMaskFilter_18_" filterUnits="userSpaceOnUse" x="-199.7" y="369.7" width="42.4" height="30.1">
						<feColorMatrix  type="matrix" values="1 0 0 0 0  0 1 0 0 0  0 0 1 0 0  0 0 0 1 0"/>
					</filter>
				</defs>
				<mask maskUnits="userSpaceOnUse" x="-199.7" y="369.7" width="42.4" height="30.1" id="mask-38">
					<g class="st37">
						<path id="path-37" class="st1" d="M-194.8,380.5c10.7,3,22.6,8.3,32.7,14.5l0,0c0-0.1-1.1-6.2-4.1-11.8l0,0
							c-3-5.7-6.4-8.5-6.4-8.6l0,0C-179.8,375.4-187.7,377.5-194.8,380.5L-194.8,380.5z"/>
					</g>
				</mask>
				<path id="Fill-55" sketch:type="MSShapeGroup" class="st38" d="M-199.7,369.7h42.4v30.1h-42.4V369.7z"/>
			</g>
			<g id="Group-60" transform="translate(0.000000, 9.649123)">
				<g id="Clip-59">
				</g>
				<defs>
					<filter id="Adobe_OpacityMaskFilter_19_" filterUnits="userSpaceOnUse" x="-199.8" y="370" width="23.7" height="26.9">
						<feColorMatrix  type="matrix" values="1 0 0 0 0  0 1 0 0 0  0 0 1 0 0  0 0 0 1 0"/>
					</filter>
				</defs>
				<mask maskUnits="userSpaceOnUse" x="-199.8" y="370" width="23.7" height="26.9" id="mask-40">
					<g class="st39">
						<path id="path-39" class="st1" d="M-194.2,378.1c-2.8,4.1,2,10.2,5.9,14l0,0l7.3-17.1c-0.1,0-1.2-0.1-2.6-0.1l0,0
							C-186.9,374.9-192.2,375.3-194.2,378.1L-194.2,378.1z"/>
					</g>
				</mask>
				<path id="Fill-58" sketch:type="MSShapeGroup" class="st40" d="M-199.8,370h23.7v26.9h-23.7V370z"/>
			</g>
			<g id="Group-63" transform="translate(11.578947, 12.543860)">
				<g id="Clip-62">
				</g>
				<defs>
					<filter id="Adobe_OpacityMaskFilter_20_" filterUnits="userSpaceOnUse" x="-199.5" y="369.3" width="10.5" height="10.9">
						<feColorMatrix  type="matrix" values="1 0 0 0 0  0 1 0 0 0  0 0 1 0 0  0 0 0 1 0"/>
					</filter>
				</defs>
				<mask maskUnits="userSpaceOnUse" x="-199.5" y="369.3" width="10.5" height="10.9" id="mask-42">
					<g class="st41">
						<path id="path-41" class="st1" d="M-194.7,375.4c0.3-0.4,0.5-0.9,0.8-1.3l0,0C-194.1,374.5-194.4,374.9-194.7,375.4
							L-194.7,375.4z"/>
					</g>
				</mask>
				<path id="Fill-61" sketch:type="MSShapeGroup" class="st42" d="M-199.5,369.3h10.5v10.9h-10.5V369.3z"/>
			</g>
			<g id="Group-66" transform="translate(5.789474, 9.649123)">
				<g id="Clip-65">
				</g>
				<defs>
					<filter id="Adobe_OpacityMaskFilter_21_" filterUnits="userSpaceOnUse" x="-198.9" y="370.1" width="31.1" height="26.8">
						<feColorMatrix  type="matrix" values="1 0 0 0 0  0 1 0 0 0  0 0 1 0 0  0 0 0 1 0"/>
					</filter>
				</defs>
				<mask maskUnits="userSpaceOnUse" x="-198.9" y="370.1" width="31.1" height="26.8" id="mask-44">
					<g class="st43">
						<path id="path-43" class="st1" d="M-194.1,392.1c9.1-9.1,16.9-12.5,21.4-14.5l0,0c-4.8-1.3-8.2-2.1-14.1-2.7l0,0
							C-190.7,379.5-193.5,386.6-194.1,392.1L-194.1,392.1z"/>
					</g>
				</mask>
				<path id="Fill-64" sketch:type="MSShapeGroup" class="st44" d="M-198.9,370.1h31.1v26.8h-31.1V370.1z"/>
			</g>
			<g id="Group-69" transform="translate(85.877193, 6.754386)">
				<g id="Clip-68">
				</g>
				<defs>
					<filter id="Adobe_OpacityMaskFilter_22_" filterUnits="userSpaceOnUse" x="-198.9" y="369.8" width="141.2" height="31.2">
						<feColorMatrix  type="matrix" values="1 0 0 0 0  0 1 0 0 0  0 0 1 0 0  0 0 0 1 0"/>
					</filter>
				</defs>
				<mask maskUnits="userSpaceOnUse" x="-198.9" y="369.8" width="141.2" height="31.2" id="mask-46">
					<g class="st45">
						<path id="path-45" class="st1" d="M-67.2,374.7v1.4h2.9v17.4h-2.9v1.4h4.6v-20.2H-67.2z M-194,374.7v20.2h4.6v-1.4h-2.9v-17.4
							h2.9v-1.4H-194z M-101.9,375v6.4c-1-1.3-2.4-2.1-4.1-2.1l0,0c-3.1,0-5.4,2.5-5.4,6.3l0,0c0,3.9,2.2,6.3,5.4,6.3l0,0
							c1.7,0,3.2-0.9,4.1-2.1l0,0v1.8h1.9V375H-101.9z M-109.4,385.6c0-2.7,1.4-4.7,3.9-4.7l0,0c1.5,0,2.9,0.9,3.6,1.9l0,0v5.4
							c-0.6,1-2.1,1.9-3.6,1.9l0,0C-107.9,390.2-109.4,388.3-109.4,385.6L-109.4,385.6z M-181.4,376.3v3.3h-2v1.6h2v7.9
							c0,1.8,0.9,2.8,2.7,2.8l0,0c1.1,0,1.7-0.3,2.2-0.8l0,0l-0.5-1.4c-0.2,0.3-0.7,0.5-1.3,0.5l0,0c-0.8,0-1.2-0.6-1.2-1.5l0,0
							v-7.5h2.4v-1.6h-2.4v-3.3H-181.4z M-95.2,385.6c0,3.8,2.6,6.3,6.2,6.3l0,0c1.9,0,3.6-0.7,4.8-1.9l0,0l-0.9-1.2
							c-1,1-2.3,1.5-3.7,1.5l0,0c-2.6,0-4.2-1.9-4.3-4.2l0,0h9.7v-0.5c0-3.6-2.1-6.5-5.8-6.5l0,0C-92.7,379.3-95.2,382.1-95.2,385.6
							L-95.2,385.6z M-89.3,380.8c2.7,0,3.9,2.2,4,4l0,0h-7.9C-93.2,383-91.9,380.8-89.3,380.8L-89.3,380.8z M-127.3,385.6
							c0,3.5,2.3,6.3,6,6.3l0,0c3.7,0,6-2.8,6-6.3l0,0c0-3.5-2.3-6.3-6-6.3l0,0C-125,379.3-127.3,382.1-127.3,385.6L-127.3,385.6z
							 M-125.3,385.6c0-2.4,1.4-4.6,4-4.6l0,0c2.6,0,4,2.2,4,4.6l0,0c0,2.5-1.4,4.7-4,4.7l0,0C-123.9,390.2-125.3,388-125.3,385.6
							L-125.3,385.6z M-141.4,385.6c0,3.6,2.4,6.3,6,6.3l0,0c2.2,0,3.5-0.9,4.4-2.1l0,0l-1.2-1.1c-0.8,1.1-1.8,1.6-3.1,1.6l0,0
							c-2.5,0-4.2-2-4.2-4.7l0,0c0-2.7,1.6-4.6,4.2-4.6l0,0c1.2,0,2.3,0.4,3.1,1.5l0,0l1.2-1.1c-0.9-1.2-2.2-2.1-4.4-2.1l0,0
							C-139,379.3-141.4,382-141.4,385.6L-141.4,385.6z M-154.9,381.4v-1.8h-1.9v16.6h1.9v-6.4c1,1.3,2.4,2.1,4.1,2.1l0,0
							c3.2,0,5.4-2.4,5.4-6.3l0,0c0-3.9-2.2-6.3-5.4-6.3l0,0C-152.5,379.3-154,380.1-154.9,381.4L-154.9,381.4z M-154.9,388.3v-5.4
							c0.6-1,2.1-1.9,3.6-1.9l0,0c2.4,0,3.9,2,3.9,4.6l0,0c0,2.7-1.4,4.7-3.9,4.7l0,0C-152.7,390.2-154.2,389.3-154.9,388.3
							L-154.9,388.3z M-173.4,385.6c0,3.5,2.3,6.3,6,6.3l0,0c3.7,0,6-2.8,6-6.3l0,0c0-3.5-2.3-6.3-6-6.3l0,0
							C-171.1,379.3-173.4,382.1-173.4,385.6L-173.4,385.6z M-171.5,385.6c0-2.4,1.4-4.6,4-4.6l0,0c2.6,0,4,2.2,4,4.6l0,0
							c0,2.5-1.4,4.7-4,4.7l0,0C-170,390.2-171.5,388-171.5,385.6L-171.5,385.6z M-76.9,381.5v-1.9h-1.9v12h1.9v-8.5
							c0.5-1,2.1-1.9,3.3-1.9l0,0c0.3,0,0.5,0,0.7,0.1l0,0v-1.9C-74.5,379.3-75.9,380.2-76.9,381.5L-76.9,381.5z"/>
					</g>
				</mask>
				<path id="Fill-67" sketch:type="MSShapeGroup" class="st46" d="M-198.9,369.8h141.2V401h-141.2V369.8z"/>
			</g>
			<g id="Group-84" transform="translate(85.877193, 33.771930)" sketch:type="MSShapeGroup">
				<path id="Fill-70" class="st47" d="M-190.5,374.6c1,0,1.8,0.5,2.3,1.1l-0.4,0.4c-0.5-0.5-1.1-0.9-1.9-0.9c-1.9,0-3.2,1.6-3.2,4
					c0,2.5,1.2,4.1,3.1,4.1c0.9,0,1.6-0.4,2.3-1.1l0.4,0.4c-0.7,0.8-1.5,1.3-2.6,1.3c-2.2,0-3.7-1.8-3.7-4.6
					C-194.3,376.4-192.8,374.6-190.5,374.6"/>
				<path id="Fill-72" class="st47" d="M-167.2,379.2c0-2.5-1.2-4-3-4c-1.8,0-3,1.6-3,4c0,2.5,1.2,4.1,3,4.1
					C-168.4,383.2-167.2,381.6-167.2,379.2 M-173.9,379.2c0-2.8,1.5-4.6,3.7-4.6c2.1,0,3.7,1.8,3.7,4.6c0,2.8-1.5,4.6-3.7,4.6
					C-172.4,383.8-173.9,382-173.9,379.2"/>
				<path id="Fill-74" class="st47" d="M-151.4,374.7h0.6l3.7,6.3l1,1.8h0.1c0-0.9-0.1-1.7-0.1-2.6v-5.5h0.6v8.9h-0.6l-3.7-6.3
					l-1-1.8h-0.1c0,0.9,0.1,1.7,0.1,2.5v5.5h-0.6V374.7z"/>
				<path id="Fill-76" class="st47" d="M-129.7,374.7h0.6l3.7,6.3l1,1.8h0.1c0-0.9-0.1-1.7-0.1-2.6v-5.5h0.6v8.9h-0.6l-3.7-6.3
					l-1-1.8h-0.1c0,0.9,0.1,1.7,0.1,2.5v5.5h-0.6V374.7z"/>
				<path id="Fill-78" class="st47" d="M-108,374.7h4.9v0.5h-4.2v3.4h3.6v0.5h-3.6v3.9h4.4v0.5h-5V374.7z"/>
				<path id="Fill-80" class="st47" d="M-84.7,374.6c1,0,1.8,0.5,2.3,1.1l-0.4,0.4c-0.5-0.5-1.1-0.9-1.9-0.9c-1.9,0-3.2,1.6-3.2,4
					c0,2.5,1.2,4.1,3.1,4.1c0.9,0,1.6-0.4,2.3-1.1l0.4,0.4c-0.7,0.8-1.5,1.3-2.6,1.3c-2.2,0-3.7-1.8-3.7-4.6
					C-88.5,376.4-87,374.6-84.7,374.6"/>
				<path id="Fill-82" class="st47" d="M-65.2,375.3h-2.8v-0.5h6.3v0.5h-2.8v8.4h-0.6V375.3z"/>
			</g>
		</g>
	</g>
</g>
</svg>
